  0
SECTION
  2
HEADER
  9
$ACADVER
  1
AC1014
  9
$HANDSEED
  5
FFFF
  9
$MEASUREMENT
 70
     1
  0
ENDSEC
  0
SECTION
  2
TABLES
  0
TABLE
  2
VPORT
  5
8
330
0
100
AcDbSymbolTable
 70
     4
  0
VPORT
  5
2E
330
8
100
AcDbSymbolTableRecord
100
AcDbViewportTableRecord
  2
*ACTIVE
 70
     0
 10
0.0
 20
0.0
 11
1.0
 21
1.0
 12
210.0
 22
148.5
 13
0.0
 23
0.0
 14
10.0
 24
10.0
 15
10.0
 25
10.0
 16
0.0
 26
0.0
 36
1.0
 17
0.0
 27
0.0
 37
0.0
 40
341.0
 41
1.24
 42
50.0
 43
0.0
 44
0.0
 50
0.0
 51
0.0
 71
     0
 72
   100
 73
     1
 74
     3
 75
     0
 76
     0
 77
     0
 78
     0
  0
ENDTAB
  0
TABLE
  2
LTYPE
  5
5
330
0
100
AcDbSymbolTable
 70
     1
  0
LTYPE
  5
14
330
5
100
AcDbSymbolTableRecord
100
AcDbLinetypeTableRecord
  2
BYBLOCK
 70
     0
  3

 72
    65
 73
     0
 40
0.0
  0
LTYPE
  5
15
330
5
100
AcDbSymbolTableRecord
100
AcDbLinetypeTableRecord
  2
BYLAYER
 70
     0
  3

 72
    65
 73
     0
 40
0.0
  0
LTYPE
  5
16
330
5
100
AcDbSymbolTableRecord
100
AcDbLinetypeTableRecord
  2
CONTINUOUS
 70
     0
  3
Solid line
 72
    65
 73
     0
 40
0.0
  0
ENDTAB
  0
TABLE
  2
LAYER
  5
2
100
AcDbSymbolTable
 70
1
  0
LAYER
  5
50
100
AcDbSymbolTableRecord
100
AcDbLayerTableRecord
  2
0
 70
0
  6
CONTINUOUS
  0
ENDTAB
  0
TABLE
  2
STYLE
  5
3
330
0
100
AcDbSymbolTable
 70
     1
  0
STYLE
  5
11
330
3
100
AcDbSymbolTableRecord
100
AcDbTextStyleTableRecord
  2
STANDARD
 70
     0
 40
0.0
 41
1.0
 50
0.0
 71
     0
 42
2.5
  3
txt
  4

  0
ENDTAB
  0
TABLE
  2
VIEW
  5
6
330
0
100
AcDbSymbolTable
 70
     0
  0
ENDTAB
  0
TABLE
  2
UCS
  5
7
330
0
100
AcDbSymbolTable
 70
     0
  0
ENDTAB
  0
TABLE
  2
APPID
  5
9
330
0
100
AcDbSymbolTable
 70
     2
  0
APPID
  5
12
330
9
100
AcDbSymbolTableRecord
100
AcDbRegAppTableRecord
  2
ACAD
 70
     0
  0
ENDTAB
  0
TABLE
  2
DIMSTYLE
  5
A
330
0
100
AcDbSymbolTable
 70
     1
  0
DIMSTYLE
105
27
330
A
100
AcDbSymbolTableRecord
100
AcDbDimStyleTableRecord
  2
ISO-25
 70
     0
  3

  4

  5

  6

  7

 40
1.0
 41
2.5
 42
0.625
 43
3.75
 44
1.25
 45
0.0
 46
0.0
 47
0.0
 48
0.0
140
2.5
141
2.5
142
0.0
143
0.03937007874016
144
1.0
145
0.0
146
1.0
147
0.625
 71
     0
 72
     0
 73
     0
 74
     0
 75
     0
 76
     0
 77
     1
 78
     8
170
     0
171
     3
172
     1
173
     0
174
     0
175
     0
176
     0
177
     0
178
     0
270
     2
271
     2
272
     2
273
     2
274
     3
340
11
275
     0
280
     0
281
     0
282
     0
283
     0
284
     8
285
     0
286
     0
287
     3
288
     0
  0
ENDTAB
  0
TABLE
  2
BLOCK_RECORD
  5
1
330
0
100
AcDbSymbolTable
 70
     1
  0
BLOCK_RECORD
  5
1F
330
1
100
AcDbSymbolTableRecord
100
AcDbBlockTableRecord
  2
*MODEL_SPACE
  0
BLOCK_RECORD
  5
1B
330
1
100
AcDbSymbolTableRecord
100
AcDbBlockTableRecord
  2
*PAPER_SPACE
  0
ENDTAB
  0
ENDSEC
  0
SECTION
  2
BLOCKS
  0
BLOCK
  5
20
330
1F
100
AcDbEntity
  8
0
100
AcDbBlockBegin
  2
*MODEL_SPACE
 70
     0
 10
0.0
 20
0.0
 30
0.0
  3
*MODEL_SPACE
  1

  0
ENDBLK
  5
21
330
1F
100
AcDbEntity
  8
0
100
AcDbBlockEnd
  0
BLOCK
  5
1C
330
1B
100
AcDbEntity
 67
     1
  8
0
100
AcDbBlockBegin
  2
*PAPER_SPACE
  1

  0
ENDBLK
  5
1D
330
1B
100
AcDbEntity
 67
     1
  8
0
100
AcDbBlockEnd
  0
ENDSEC
  0
SECTION
  2
ENTITIES
  0
SPLINE
  5
100
100
AcDbEntity
  8
0
 62
7
100
AcDbSpline
 70
8
 71
3
 72
8
 73
4
 74
0
 40
0
 40
0
 40
0
 40
0
 40
1
 40
1
 40
1
 40
1
 10
1.141654
 20
5.279584
 30
0.0
 10
1.070260
 20
5.288482
 30
0.0
 10
0.943830
 20
5.330177
 30
0.0
 10
0.860699
 20
5.372238
 30
0.0
  0
SPLINE
  5
101
100
AcDbEntity
  8
0
 62
7
100
AcDbSpline
 70
8
 71
3
 72
8
 73
4
 74
0
 40
0
 40
0
 40
0
 40
0
 40
1
 40
1
 40
1
 40
1
 10
0.860699
 20
5.372238
 30
0.0
 10
0.424417
 20
5.592980
 30
0.0
 10
0.322717
 20
6.071006
 30
0.0
 10
0.609345
 20
6.553681
 30
0.0
  0
SPLINE
  5
102
100
AcDbEntity
  8
0
 62
7
100
AcDbSpline
 70
8
 71
3
 72
8
 73
4
 74
0
 40
0
 40
0
 40
0
 40
0
 40
1
 40
1
 40
1
 40
1
 10
0.609345
 20
6.553681
 30
0.0
 10
0.799712
 20
6.874255
 30
0.0
 10
1.173302
 20
7.149839
 30
0.0
 10
1.574017
 20
7.265284
 30
0.0
  0
SPLINE
  5
103
100
AcDbEntity
  8
0
 62
7
100
AcDbSpline
 70
8
 71
3
 72
8
 73
4
 74
0
 40
0
 40
0
 40
0
 40
0
 40
1
 40
1
 40
1
 40
1
 10
1.574017
 20
7.265284
 30
0.0
 10
1.767060
 20
7.320899
 30
0.0
 10
2.119229
 20
7.320558
 30
0.0
 10
2.285833
 20
7.264591
 30
0.0
  0
SPLINE
  5
104
100
AcDbEntity
  8
0
 62
7
100
AcDbSpline
 70
8
 71
3
 72
8
 73
4
 74
0
 40
0
 40
0
 40
0
 40
0
 40
1
 40
1
 40
1
 40
1
 10
2.285833
 20
7.264591
 30
0.0
 10
2.445211
 20
7.211055
 30
0.0
 10
2.613725
 20
7.098052
 30
0.0
 10
2.686416
 20
6.995967
 30
0.0
  0
SPLINE
  5
105
100
AcDbEntity
  8
0
 62
7
100
AcDbSpline
 70
8
 71
3
 72
8
 73
4
 74
0
 40
0
 40
0
 40
0
 40
0
 40
1
 40
1
 40
1
 40
1
 10
2.686416
 20
6.995967
 30
0.0
 10
2.738033
 20
6.923477
 30
0.0
 10
2.738578
 20
6.918142
 30
0.0
 10
2.694367
 20
6.918142
 30
0.0
  0
SPLINE
  5
106
100
AcDbEntity
  8
0
 62
7
100
AcDbSpline
 70
8
 71
3
 72
8
 73
4
 74
0
 40
0
 40
0
 40
0
 40
0
 40
1
 40
1
 40
1
 40
1
 10
2.694367
 20
6.918142
 30
0.0
 10
2.668261
 20
6.918142
 30
0.0
 10
2.616596
 20
6.946243
 30
0.0
 10
2.579556
 20
6.980588
 30
0.0
  0
SPLINE
  5
107
100
AcDbEntity
  8
0
 62
7
100
AcDbSpline
 70
8
 71
3
 72
8
 73
4
 74
0
 40
0
 40
0
 40
0
 40
0
 40
1
 40
1
 40
1
 40
1
 10
2.579556
 20
6.980588
 30
0.0
 10
2.419757
 20
7.128760
 30
0.0
 10
2.306820
 20
7.163305
 30
0.0
 10
1.985408
 20
7.162322
 30
0.0
  0
SPLINE
  5
108
100
AcDbEntity
  8
0
 62
7
100
AcDbSpline
 70
8
 71
3
 72
8
 73
4
 74
0
 40
0
 40
0
 40
0
 40
0
 40
1
 40
1
 40
1
 40
1
 10
1.985408
 20
7.162322
 30
0.0
 10
1.666214
 20
7.161336
 30
0.0
 10
1.538624
 20
7.128318
 30
0.0
 10
1.266507
 20
6.976229
 30
0.0
  0
SPLINE
  5
109
100
AcDbEntity
  8
0
 62
7
100
AcDbSpline
 70
8
 71
3
 72
8
 73
4
 74
0
 40
0
 40
0
 40
0
 40
0
 40
1
 40
1
 40
1
 40
1
 10
1.266507
 20
6.976229
 30
0.0
 10
1.072724
 20
6.867921
 30
0.0
 10
0.837589
 20
6.617774
 30
0.0
 10
0.737653
 20
6.413611
 30
0.0
  0
SPLINE
  5
10a
100
AcDbEntity
  8
0
 62
7
100
AcDbSpline
 70
8
 71
3
 72
8
 73
4
 74
0
 40
0
 40
0
 40
0
 40
0
 40
1
 40
1
 40
1
 40
1
 10
0.737653
 20
6.413611
 30
0.0
 10
0.365213
 20
5.652732
 30
0.0
 10
1.067992
 20
5.079511
 30
0.0
 10
1.946466
 20
5.427643
 30
0.0
  0
SPLINE
  5
10b
100
AcDbEntity
  8
0
 62
7
100
AcDbSpline
 70
8
 71
3
 72
8
 73
4
 74
0
 40
0
 40
0
 40
0
 40
0
 40
1
 40
1
 40
1
 40
1
 10
1.946466
 20
5.427643
 30
0.0
 10
2.032139
 20
5.461595
 30
0.0
 10
2.081168
 20
5.473224
 30
0.0
 10
2.055418
 20
5.453485
 30
0.0
  0
SPLINE
  5
10c
100
AcDbEntity
  8
0
 62
7
100
AcDbSpline
 70
8
 71
3
 72
8
 73
4
 74
0
 40
0
 40
0
 40
0
 40
0
 40
1
 40
1
 40
1
 40
1
 10
2.055418
 20
5.453485
 30
0.0
 10
1.979871
 20
5.395574
 30
0.0
 10
1.596137
 20
5.286115
 30
0.0
 10
1.427233
 20
5.274298
 30
0.0
  0
SPLINE
  5
10d
100
AcDbEntity
  8
0
 62
7
100
AcDbSpline
 70
8
 71
3
 72
8
 73
4
 74
0
 40
0
 40
0
 40
0
 40
0
 40
1
 40
1
 40
1
 40
1
 10
1.427233
 20
5.274298
 30
0.0
 10
1.341559
 20
5.268302
 30
0.0
 10
1.213049
 20
5.270681
 30
0.0
 10
1.141654
 20
5.279579
 30
0.0
  0
LINE
  5
10e
100
AcDbEntity
  8
0
 62
7
100
AcDbLine
 10
1.141654
 20
5.279579
 30
0.0
 11
1.141654
 21
5.279584
 31
0.0
  0
SPLINE
  5
10f
100
AcDbEntity
  8
0
 62
7
100
AcDbSpline
 70
8
 71
3
 72
8
 73
4
 74
0
 40
0
 40
0
 40
0
 40
0
 40
1
 40
1
 40
1
 40
1
 10
1.388290
 20
6.022290
 30
0.0
 10
1.388290
 20
6.069208
 30
0.0
 10
1.819322
 20
6.740695
 30
0.0
 10
1.871301
 20
6.774753
 30
0.0
  0
SPLINE
  5
110
100
AcDbEntity
  8
0
 62
7
100
AcDbSpline
 70
8
 71
3
 72
8
 73
4
 74
0
 40
0
 40
0
 40
0
 40
0
 40
1
 40
1
 40
1
 40
1
 10
1.871301
 20
6.774753
 30
0.0
 10
1.913826
 20
6.802617
 30
0.0
 10
1.977527
 20
6.814365
 30
0.0
 10
2.057987
 20
6.809184
 30
0.0
  0
LINE
  5
111
100
AcDbEntity
  8
0
 62
7
100
AcDbLine
 10
2.057987
 20
6.809184
 30
0.0
 11
2.180121
 21
6.801320
 31
0.0
  0
LINE
  5
112
100
AcDbEntity
  8
0
 62
7
100
AcDbLine
 10
2.180121
 20
6.801320
 30
0.0
 11
2.187287
 21
6.405405
 31
0.0
  0
LINE
  5
113
100
AcDbEntity
  8
0
 62
7
100
AcDbLine
 10
2.187287
 20
6.405405
 30
0.0
 11
2.194454
 21
6.009489
 31
0.0
  0
LINE
  5
114
100
AcDbEntity
  8
0
 62
7
100
AcDbLine
 10
2.194454
 20
6.009489
 30
0.0
 11
2.089931
 21
6.009489
 31
0.0
  0
SPLINE
  5
115
100
AcDbEntity
  8
0
 62
7
100
AcDbSpline
 70
8
 71
3
 72
8
 73
4
 74
0
 40
0
 40
0
 40
0
 40
0
 40
1
 40
1
 40
1
 40
1
 10
2.089931
 20
6.009489
 30
0.0
 10
1.986627
 20
6.009489
 30
0.0
 10
1.974347
 20
6.021864
 30
0.0
 10
1.983523
 20
6.116713
 30
0.0
  0
SPLINE
  5
116
100
AcDbEntity
  8
0
 62
7
100
AcDbSpline
 70
8
 71
3
 72
8
 73
4
 74
0
 40
0
 40
0
 40
0
 40
0
 40
1
 40
1
 40
1
 40
1
 10
1.983523
 20
6.116713
 30
0.0
 10
1.986566
 20
6.148163
 30
0.0
 10
1.956353
 20
6.163721
 30
0.0
 10
1.865892
 20
6.177286
 30
0.0
  0
SPLINE
  5
117
100
AcDbEntity
  8
0
 62
7
100
AcDbSpline
 70
8
 71
3
 72
8
 73
4
 74
0
 40
0
 40
0
 40
0
 40
0
 40
1
 40
1
 40
1
 40
1
 10
1.865892
 20
6.177286
 30
0.0
 10
1.753308
 20
6.194169
 30
0.0
 10
1.739648
 20
6.190016
 30
0.0
 10
1.683990
 20
6.121986
 30
0.0
  0
SPLINE
  5
118
100
AcDbEntity
  8
0
 62
7
100
AcDbSpline
 70
8
 71
3
 72
8
 73
4
 74
0
 40
0
 40
0
 40
0
 40
0
 40
1
 40
1
 40
1
 40
1
 10
1.683990
 20
6.121986
 30
0.0
 10
1.650892
 20
6.081531
 30
0.0
 10
1.623392
 20
6.039670
 30
0.0
 10
1.622879
 20
6.028961
 30
0.0
  0
SPLINE
  5
119
100
AcDbEntity
  8
0
 62
7
100
AcDbSpline
 70
8
 71
3
 72
8
 73
4
 74
0
 40
0
 40
0
 40
0
 40
0
 40
1
 40
1
 40
1
 40
1
 10
1.622879
 20
6.028961
 30
0.0
 10
1.621865
 20
6.007850
 30
0.0
 10
1.388290
 20
6.001207
 30
0.0
 10
1.388290
 20
6.022290
 30
0.0
  0
LINE
  5
11a
100
AcDbEntity
  8
0
 62
7
100
AcDbLine
 10
1.388290
 20
6.022290
 30
0.0
 11
1.388290
 21
6.022290
 31
0.0
  0
SPLINE
  5
11b
100
AcDbEntity
  8
0
 62
7
100
AcDbSpline
 70
8
 71
3
 72
8
 73
4
 74
0
 40
0
 40
0
 40
0
 40
0
 40
1
 40
1
 40
1
 40
1
 10
1.962898
 20
6.314539
 30
0.0
 10
1.975234
 20
6.384131
 30
0.0
 10
1.977531
 20
6.571491
 30
0.0
 10
1.966277
 20
6.590107
 30
0.0
  0
SPLINE
  5
11c
100
AcDbEntity
  8
0
 62
7
100
AcDbSpline
 70
8
 71
3
 72
8
 73
4
 74
0
 40
0
 40
0
 40
0
 40
0
 40
1
 40
1
 40
1
 40
1
 10
1.966277
 20
6.590107
 30
0.0
 10
1.958815
 20
6.602449
 30
0.0
 10
1.917517
 20
6.551594
 30
0.0
 10
1.874504
 20
6.477092
 30
0.0
  0
SPLINE
  5
11d
100
AcDbEntity
  8
0
 62
7
100
AcDbSpline
 70
8
 71
3
 72
8
 73
4
 74
0
 40
0
 40
0
 40
0
 40
0
 40
1
 40
1
 40
1
 40
1
 10
1.874504
 20
6.477092
 30
0.0
 10
1.810805
 20
6.366762
 30
0.0
 10
1.803002
 20
6.337389
 30
0.0
 10
1.832439
 20
6.318748
 30
0.0
  0
SPLINE
  5
11e
100
AcDbEntity
  8
0
 62
7
100
AcDbSpline
 70
8
 71
3
 72
8
 73
4
 74
0
 40
0
 40
0
 40
0
 40
0
 40
1
 40
1
 40
1
 40
1
 10
1.832439
 20
6.318748
 30
0.0
 10
1.876814
 20
6.290649
 30
0.0
 10
1.958198
 20
6.288023
 30
0.0
 10
1.962898
 20
6.314539
 30
0.0
  0
LINE
  5
11f
100
AcDbEntity
  8
0
 62
7
100
AcDbLine
 10
1.962898
 20
6.314539
 30
0.0
 11
1.962898
 21
6.314539
 31
0.0
  0
SPLINE
  5
120
100
AcDbEntity
  8
0
 62
7
100
AcDbSpline
 70
8
 71
3
 72
8
 73
4
 74
0
 40
0
 40
0
 40
0
 40
0
 40
1
 40
1
 40
1
 40
1
 10
2.382868
 20
6.051960
 30
0.0
 10
2.373903
 20
6.075319
 30
0.0
 10
2.395378
 20
6.183384
 30
0.0
 10
2.430589
 20
6.292105
 30
0.0
  0
SPLINE
  5
121
100
AcDbEntity
  8
0
 62
7
100
AcDbSpline
 70
8
 71
3
 72
8
 73
4
 74
0
 40
0
 40
0
 40
0
 40
0
 40
1
 40
1
 40
1
 40
1
 10
2.430589
 20
6.292105
 30
0.0
 10
2.481193
 20
6.448359
 30
0.0
 10
2.506127
 20
6.491464
 30
0.0
 10
2.549581
 20
6.497818
 30
0.0
  0
LINE
  5
122
100
AcDbEntity
  8
0
 62
7
100
AcDbLine
 10
2.549581
 20
6.497818
 30
0.0
 11
2.604554
 21
6.505857
 31
0.0
  0
LINE
  5
123
100
AcDbEntity
  8
0
 62
7
100
AcDbLine
 10
2.604554
 20
6.505857
 30
0.0
 11
2.542164
 21
6.329068
 31
0.0
  0
SPLINE
  5
124
100
AcDbEntity
  8
0
 62
7
100
AcDbSpline
 70
8
 71
3
 72
8
 73
4
 74
0
 40
0
 40
0
 40
0
 40
0
 40
1
 40
1
 40
1
 40
1
 10
2.542164
 20
6.329068
 30
0.0
 10
2.507850
 20
6.231834
 30
0.0
 10
2.479528
 20
6.143517
 30
0.0
 10
2.479227
 20
6.132808
 30
0.0
  0
SPLINE
  5
125
100
AcDbEntity
  8
0
 62
7
100
AcDbSpline
 70
8
 71
3
 72
8
 73
4
 74
0
 40
0
 40
0
 40
0
 40
0
 40
1
 40
1
 40
1
 40
1
 10
2.479227
 20
6.132808
 30
0.0
 10
2.478936
 20
6.122099
 30
0.0
 10
2.520819
 20
6.113336
 30
0.0
 10
2.572323
 20
6.113336
 30
0.0
  0
SPLINE
  5
126
100
AcDbEntity
  8
0
 62
7
100
AcDbSpline
 70
8
 71
3
 72
8
 73
4
 74
0
 40
0
 40
0
 40
0
 40
0
 40
1
 40
1
 40
1
 40
1
 10
2.572323
 20
6.113336
 30
0.0
 10
2.647048
 20
6.113336
 30
0.0
 10
2.662783
 20
6.105039
 30
0.0
 10
2.650208
 20
6.072270
 30
0.0
  0
SPLINE
  5
127
100
AcDbEntity
  8
0
 62
7
100
AcDbSpline
 70
8
 71
3
 72
8
 73
4
 74
0
 40
0
 40
0
 40
0
 40
0
 40
1
 40
1
 40
1
 40
1
 10
2.650208
 20
6.072270
 30
0.0
 10
2.641543
 20
6.049684
 30
0.0
 10
2.634450
 20
6.026318
 30
0.0
 10
2.634450
 20
6.020347
 30
0.0
  0
SPLINE
  5
128
100
AcDbEntity
  8
0
 62
7
100
AcDbSpline
 70
8
 71
3
 72
8
 73
4
 74
0
 40
0
 40
0
 40
0
 40
0
 40
1
 40
1
 40
1
 40
1
 10
2.634450
 20
6.020347
 30
0.0
 10
2.634450
 20
6.014375
 30
0.0
 10
2.581511
 20
6.009488
 30
0.0
 10
2.516808
 20
6.009488
 30
0.0
  0
SPLINE
  5
129
100
AcDbEntity
  8
0
 62
7
100
AcDbSpline
 70
8
 71
3
 72
8
 73
4
 74
0
 40
0
 40
0
 40
0
 40
0
 40
1
 40
1
 40
1
 40
1
 10
2.516808
 20
6.009488
 30
0.0
 10
2.431842
 20
6.009488
 30
0.0
 10
2.394638
 20
6.021286
 30
0.0
 10
2.382867
 20
6.051959
 30
0.0
  0
LINE
  5
12a
100
AcDbEntity
  8
0
 62
7
100
AcDbLine
 10
2.382867
 20
6.051959
 30
0.0
 11
2.382868
 21
6.051960
 31
0.0
  0
SPLINE
  5
12b
100
AcDbEntity
  8
0
 62
7
100
AcDbSpline
 70
8
 71
3
 72
8
 73
4
 74
0
 40
0
 40
0
 40
0
 40
0
 40
1
 40
1
 40
1
 40
1
 10
2.748096
 20
6.047361
 30
0.0
 10
2.733676
 20
6.084938
 30
0.0
 10
2.757669
 20
6.180246
 30
0.0
 10
2.834964
 20
6.392424
 30
0.0
  0
SPLINE
  5
12c
100
AcDbEntity
  8
0
 62
7
100
AcDbSpline
 70
8
 71
3
 72
8
 73
4
 74
0
 40
0
 40
0
 40
0
 40
0
 40
1
 40
1
 40
1
 40
1
 10
2.834964
 20
6.392424
 30
0.0
 10
2.862839
 20
6.468943
 30
0.0
 10
2.890144
 20
6.502761
 30
0.0
 10
2.924050
 20
6.502761
 30
0.0
  0
SPLINE
  5
12d
100
AcDbEntity
  8
0
 62
7
100
AcDbSpline
 70
8
 71
3
 72
8
 73
4
 74
0
 40
0
 40
0
 40
0
 40
0
 40
1
 40
1
 40
1
 40
1
 10
2.924050
 20
6.502761
 30
0.0
 10
2.977677
 20
6.502761
 30
0.0
 10
2.972094
 20
6.443302
 30
0.0
 10
2.902796
 20
6.276431
 30
0.0
  0
SPLINE
  5
12e
100
AcDbEntity
  8
0
 62
7
100
AcDbSpline
 70
8
 71
3
 72
8
 73
4
 74
0
 40
0
 40
0
 40
0
 40
0
 40
1
 40
1
 40
1
 40
1
 10
2.902796
 20
6.276431
 30
0.0
 10
2.848796
 20
6.146395
 30
0.0
 10
2.857551
 20
6.113336
 30
0.0
 10
2.945989
 20
6.113336
 30
0.0
  0
SPLINE
  5
12f
100
AcDbEntity
  8
0
 62
7
100
AcDbSpline
 70
8
 71
3
 72
8
 73
4
 74
0
 40
0
 40
0
 40
0
 40
0
 40
1
 40
1
 40
1
 40
1
 10
2.945989
 20
6.113336
 30
0.0
 10
3.006566
 20
6.113336
 30
0.0
 10
3.023874
 20
6.101798
 30
0.0
 10
3.023874
 20
6.061413
 30
0.0
  0
SPLINE
  5
130
100
AcDbEntity
  8
0
 62
7
100
AcDbSpline
 70
8
 71
3
 72
8
 73
4
 74
0
 40
0
 40
0
 40
0
 40
0
 40
1
 40
1
 40
1
 40
1
 10
3.023874
 20
6.061413
 30
0.0
 10
3.023874
 20
6.016370
 30
0.0
 10
3.006565
 20
6.009490
 30
0.0
 10
2.893251
 20
6.009490
 30
0.0
  0
SPLINE
  5
131
100
AcDbEntity
  8
0
 62
7
100
AcDbSpline
 70
8
 71
3
 72
8
 73
4
 74
0
 40
0
 40
0
 40
0
 40
0
 40
1
 40
1
 40
1
 40
1
 10
2.893251
 20
6.009490
 30
0.0
 10
2.802732
 20
6.009490
 30
0.0
 10
2.758165
 20
6.021118
 30
0.0
 10
2.748095
 20
6.047361
 30
0.0
  0
LINE
  5
132
100
AcDbEntity
  8
0
 62
7
100
AcDbLine
 10
2.748095
 20
6.047361
 30
0.0
 11
2.748096
 21
6.047361
 31
0.0
  0
SPLINE
  5
133
100
AcDbEntity
  8
0
 62
7
100
AcDbSpline
 70
8
 71
3
 72
8
 73
4
 74
0
 40
0
 40
0
 40
0
 40
0
 40
1
 40
1
 40
1
 40
1
 10
3.127318
 20
6.184731
 30
0.0
 10
3.153454
 20
6.281114
 30
0.0
 10
3.181983
 20
6.392100
 30
0.0
 10
3.190717
 20
6.431367
 30
0.0
  0
SPLINE
  5
134
100
AcDbEntity
  8
0
 62
7
100
AcDbSpline
 70
8
 71
3
 72
8
 73
4
 74
0
 40
0
 40
0
 40
0
 40
0
 40
1
 40
1
 40
1
 40
1
 10
3.190717
 20
6.431367
 30
0.0
 10
3.201721
 20
6.480847
 30
0.0
 10
3.222919
 20
6.502761
 30
0.0
 10
3.259774
 20
6.502761
 30
0.0
  0
SPLINE
  5
135
100
AcDbEntity
  8
0
 62
7
100
AcDbSpline
 70
8
 71
3
 72
8
 73
4
 74
0
 40
0
 40
0
 40
0
 40
0
 40
1
 40
1
 40
1
 40
1
 10
3.259774
 20
6.502761
 30
0.0
 10
3.298356
 20
6.502761
 30
0.0
 10
3.309174
 20
6.490291
 30
0.0
 10
3.299187
 20
6.457328
 30
0.0
  0
SPLINE
  5
136
100
AcDbEntity
  8
0
 62
7
100
AcDbSpline
 70
8
 71
3
 72
8
 73
4
 74
0
 40
0
 40
0
 40
0
 40
0
 40
1
 40
1
 40
1
 40
1
 10
3.299187
 20
6.457328
 30
0.0
 10
3.263019
 20
6.337958
 30
0.0
 10
3.239354
 20
6.192969
 30
0.0
 10
3.257911
 20
6.204438
 30
0.0
  0
SPLINE
  5
137
100
AcDbEntity
  8
0
 62
7
100
AcDbSpline
 70
8
 71
3
 72
8
 73
4
 74
0
 40
0
 40
0
 40
0
 40
0
 40
1
 40
1
 40
1
 40
1
 10
3.257911
 20
6.204438
 30
0.0
 10
3.269314
 20
6.211485
 30
0.0
 10
3.315391
 20
6.272729
 30
0.0
 10
3.360304
 20
6.340535
 30
0.0
  0
SPLINE
  5
138
100
AcDbEntity
  8
0
 62
7
100
AcDbSpline
 70
8
 71
3
 72
8
 73
4
 74
0
 40
0
 40
0
 40
0
 40
0
 40
1
 40
1
 40
1
 40
1
 10
3.360304
 20
6.340535
 30
0.0
 10
3.445392
 20
6.468996
 30
0.0
 10
3.476362
 20
6.490690
 30
0.0
 10
3.480706
 20
6.424876
 30
0.0
  0
SPLINE
  5
139
100
AcDbEntity
  8
0
 62
7
100
AcDbSpline
 70
8
 71
3
 72
8
 73
4
 74
0
 40
0
 40
0
 40
0
 40
0
 40
1
 40
1
 40
1
 40
1
 10
3.480706
 20
6.424876
 30
0.0
 10
3.482108
 20
6.403457
 30
0.0
 10
3.485056
 20
6.353806
 30
0.0
 10
3.487230
 20
6.314539
 30
0.0
  0
SPLINE
  5
13a
100
AcDbEntity
  8
0
 62
7
100
AcDbSpline
 70
8
 71
3
 72
8
 73
4
 74
0
 40
0
 40
0
 40
0
 40
0
 40
1
 40
1
 40
1
 40
1
 10
3.487230
 20
6.314539
 30
0.0
 10
3.492004
 20
6.228367
 30
0.0
 10
3.533249
 20
6.220591
 30
0.0
 10
3.556080
 20
6.301558
 30
0.0
  0
SPLINE
  5
13b
100
AcDbEntity
  8
0
 62
7
100
AcDbSpline
 70
8
 71
3
 72
8
 73
4
 74
0
 40
0
 40
0
 40
0
 40
0
 40
1
 40
1
 40
1
 40
1
 10
3.556080
 20
6.301558
 30
0.0
 10
3.597566
 20
6.448686
 30
0.0
 10
3.629813
 20
6.502761
 30
0.0
 10
3.676066
 20
6.502761
 30
0.0
  0
SPLINE
  5
13c
100
AcDbEntity
  8
0
 62
7
100
AcDbSpline
 70
8
 71
3
 72
8
 73
4
 74
0
 40
0
 40
0
 40
0
 40
0
 40
1
 40
1
 40
1
 40
1
 10
3.676066
 20
6.502761
 30
0.0
 10
3.702891
 20
6.502761
 30
0.0
 10
3.724609
 20
6.493999
 30
0.0
 10
3.724327
 20
6.483289
 30
0.0
  0
SPLINE
  5
13d
100
AcDbEntity
  8
0
 62
7
100
AcDbSpline
 70
8
 71
3
 72
8
 73
4
 74
0
 40
0
 40
0
 40
0
 40
0
 40
1
 40
1
 40
1
 40
1
 10
3.724327
 20
6.483289
 30
0.0
 10
3.723586
 20
6.454856
 30
0.0
 10
3.572268
 20
6.029994
 30
0.0
 10
3.557702
 20
6.015428
 30
0.0
  0
SPLINE
  5
13e
100
AcDbEntity
  8
0
 62
7
100
AcDbSpline
 70
8
 71
3
 72
8
 73
4
 74
0
 40
0
 40
0
 40
0
 40
0
 40
1
 40
1
 40
1
 40
1
 10
3.557702
 20
6.015428
 30
0.0
 10
3.528693
 20
5.986420
 30
0.0
 10
3.460689
 20
6.040709
 30
0.0
 10
3.435490
 20
6.112993
 30
0.0
  0
SPLINE
  5
13f
100
AcDbEntity
  8
0
 62
7
100
AcDbSpline
 70
8
 71
3
 72
8
 73
4
 74
0
 40
0
 40
0
 40
0
 40
0
 40
1
 40
1
 40
1
 40
1
 10
3.435490
 20
6.112993
 30
0.0
 10
3.402674
 20
6.207132
 30
0.0
 10
3.380264
 20
6.210441
 30
0.0
 10
3.317335
 20
6.130440
 30
0.0
  0
SPLINE
  5
140
100
AcDbEntity
  8
0
 62
7
100
AcDbSpline
 70
8
 71
3
 72
8
 73
4
 74
0
 40
0
 40
0
 40
0
 40
0
 40
1
 40
1
 40
1
 40
1
 10
3.317335
 20
6.130440
 30
0.0
 10
3.263825
 20
6.062413
 30
0.0
 10
3.176800
 20
6.009490
 30
0.0
 10
3.118448
 20
6.009490
 30
0.0
  0
SPLINE
  5
141
100
AcDbEntity
  8
0
 62
7
100
AcDbSpline
 70
8
 71
3
 72
8
 73
4
 74
0
 40
0
 40
0
 40
0
 40
0
 40
1
 40
1
 40
1
 40
1
 10
3.118448
 20
6.009490
 30
0.0
 10
3.085100
 20
6.009490
 30
0.0
 10
3.086317
 20
6.033525
 30
0.0
 10
3.127320
 20
6.184731
 30
0.0
  0
LINE
  5
142
100
AcDbEntity
  8
0
 62
7
100
AcDbLine
 10
3.127320
 20
6.184731
 30
0.0
 11
3.127318
 21
6.184731
 31
0.0
  0
SPLINE
  5
143
100
AcDbEntity
  8
0
 62
7
100
AcDbSpline
 70
8
 71
3
 72
8
 73
4
 74
0
 40
0
 40
0
 40
0
 40
0
 40
1
 40
1
 40
1
 40
1
 10
3.738394
 20
6.054922
 30
0.0
 10
3.748904
 20
6.079911
 30
0.0
 10
3.789416
 20
6.187976
 30
0.0
 10
3.828420
 20
6.295068
 30
0.0
  0
SPLINE
  5
144
100
AcDbEntity
  8
0
 62
7
100
AcDbSpline
 70
8
 71
3
 72
8
 73
4
 74
0
 40
0
 40
0
 40
0
 40
0
 40
1
 40
1
 40
1
 40
1
 10
3.828420
 20
6.295068
 30
0.0
 10
3.872457
 20
6.415978
 30
0.0
 10
3.915468
 20
6.492962
 30
0.0
 10
3.941896
 20
6.498174
 30
0.0
  0
SPLINE
  5
145
100
AcDbEntity
  8
0
 62
7
100
AcDbSpline
 70
8
 71
3
 72
8
 73
4
 74
0
 40
0
 40
0
 40
0
 40
0
 40
1
 40
1
 40
1
 40
1
 10
3.941896
 20
6.498174
 30
0.0
 10
3.997694
 20
6.509179
 30
0.0
 10
3.996940
 20
6.502305
 30
0.0
 10
3.913240
 20
6.236710
 30
0.0
  0
SPLINE
  5
146
100
AcDbEntity
  8
0
 62
7
100
AcDbSpline
 70
8
 71
3
 72
8
 73
4
 74
0
 40
0
 40
0
 40
0
 40
0
 40
1
 40
1
 40
1
 40
1
 10
3.913240
 20
6.236710
 30
0.0
 10
3.849903
 20
6.035734
 30
0.0
 10
3.834627
 20
6.009596
 30
0.0
 10
3.780476
 20
6.009546
 30
0.0
  0
SPLINE
  5
147
100
AcDbEntity
  8
0
 62
7
100
AcDbSpline
 70
8
 71
3
 72
8
 73
4
 74
0
 40
0
 40
0
 40
0
 40
0
 40
1
 40
1
 40
1
 40
1
 10
3.780476
 20
6.009546
 30
0.0
 10
3.732218
 20
6.009494
 30
0.0
 10
3.723323
 20
6.019092
 30
0.0
 10
3.738394
 20
6.054922
 30
0.0
  0
LINE
  5
148
100
AcDbEntity
  8
0
 62
7
100
AcDbLine
 10
3.738394
 20
6.054922
 30
0.0
 11
3.738394
 21
6.054922
 31
0.0
  0
SPLINE
  5
149
100
AcDbEntity
  8
0
 62
7
100
AcDbSpline
 70
8
 71
3
 72
8
 73
4
 74
0
 40
0
 40
0
 40
0
 40
0
 40
1
 40
1
 40
1
 40
1
 10
4.023035
 20
6.067903
 30
0.0
 10
4.031898
 20
6.100031
 30
0.0
 10
4.069133
 20
6.211604
 30
0.0
 10
4.105779
 20
6.315844
 30
0.0
  0
SPLINE
  5
14a
100
AcDbEntity
  8
0
 62
7
100
AcDbSpline
 70
8
 71
3
 72
8
 73
4
 74
0
 40
0
 40
0
 40
0
 40
0
 40
1
 40
1
 40
1
 40
1
 10
4.105779
 20
6.315844
 30
0.0
 10
4.183392
 20
6.536617
 30
0.0
 10
4.236346
 20
6.554641
 30
0.0
 10
4.291969
 20
6.379220
 30
0.0
  0
SPLINE
  5
14b
100
AcDbEntity
  8
0
 62
7
100
AcDbSpline
 70
8
 71
3
 72
8
 73
4
 74
0
 40
0
 40
0
 40
0
 40
0
 40
1
 40
1
 40
1
 40
1
 10
4.291969
 20
6.379220
 30
0.0
 10
4.311173
 20
6.318657
 30
0.0
 10
4.335941
 20
6.269106
 30
0.0
 10
4.347009
 20
6.269106
 30
0.0
  0
SPLINE
  5
14c
100
AcDbEntity
  8
0
 62
7
100
AcDbSpline
 70
8
 71
3
 72
8
 73
4
 74
0
 40
0
 40
0
 40
0
 40
0
 40
1
 40
1
 40
1
 40
1
 10
4.347009
 20
6.269106
 30
0.0
 10
4.358077
 20
6.269106
 30
0.0
 10
4.381853
 20
6.321678
 30
0.0
 10
4.399843
 20
6.385934
 30
0.0
  0
SPLINE
  5
14d
100
AcDbEntity
  8
0
 62
7
100
AcDbSpline
 70
8
 71
3
 72
8
 73
4
 74
0
 40
0
 40
0
 40
0
 40
0
 40
1
 40
1
 40
1
 40
1
 10
4.399843
 20
6.385934
 30
0.0
 10
4.422748
 20
6.467742
 30
0.0
 10
4.446246
 20
6.502761
 30
0.0
 10
4.478236
 20
6.502761
 30
0.0
  0
SPLINE
  5
14e
100
AcDbEntity
  8
0
 62
7
100
AcDbSpline
 70
8
 71
3
 72
8
 73
4
 74
0
 40
0
 40
0
 40
0
 40
0
 40
1
 40
1
 40
1
 40
1
 10
4.478236
 20
6.502761
 30
0.0
 10
4.509962
 20
6.502761
 30
0.0
 10
4.534460
 20
6.467065
 30
0.0
 10
4.558415
 20
6.385934
 30
0.0
  0
SPLINE
  5
14f
100
AcDbEntity
  8
0
 62
7
100
AcDbSpline
 70
8
 71
3
 72
8
 73
4
 74
0
 40
0
 40
0
 40
0
 40
0
 40
1
 40
1
 40
1
 40
1
 10
4.558415
 20
6.385934
 30
0.0
 10
4.577388
 20
6.321678
 30
0.0
 10
4.601573
 20
6.269106
 30
0.0
 10
4.612162
 20
6.269106
 30
0.0
  0
SPLINE
  5
150
100
AcDbEntity
  8
0
 62
7
100
AcDbSpline
 70
8
 71
3
 72
8
 73
4
 74
0
 40
0
 40
0
 40
0
 40
0
 40
1
 40
1
 40
1
 40
1
 10
4.612162
 20
6.269106
 30
0.0
 10
4.622751
 20
6.269106
 30
0.0
 10
4.645456
 20
6.315976
 30
0.0
 10
4.662619
 20
6.373261
 30
0.0
  0
SPLINE
  5
151
100
AcDbEntity
  8
0
 62
7
100
AcDbSpline
 70
8
 71
3
 72
8
 73
4
 74
0
 40
0
 40
0
 40
0
 40
0
 40
1
 40
1
 40
1
 40
1
 10
4.662619
 20
6.373261
 30
0.0
 10
4.697838
 20
6.490809
 30
0.0
 10
4.737508
 20
6.534750
 30
0.0
 10
4.783020
 20
6.506623
 30
0.0
  0
SPLINE
  5
152
100
AcDbEntity
  8
0
 62
7
100
AcDbSpline
 70
8
 71
3
 72
8
 73
4
 74
0
 40
0
 40
0
 40
0
 40
0
 40
1
 40
1
 40
1
 40
1
 10
4.783020
 20
6.506623
 30
0.0
 10
4.805782
 20
6.492555
 30
0.0
 10
4.793553
 20
6.432830
 30
0.0
 10
4.736811
 20
6.280943
 30
0.0
  0
SPLINE
  5
153
100
AcDbEntity
  8
0
 62
7
100
AcDbSpline
 70
8
 71
3
 72
8
 73
4
 74
0
 40
0
 40
0
 40
0
 40
0
 40
1
 40
1
 40
1
 40
1
 10
4.736811
 20
6.280943
 30
0.0
 10
4.694371
 20
6.167341
 30
0.0
 10
4.659606
 20
6.059790
 30
0.0
 10
4.659554
 20
6.041942
 30
0.0
  0
SPLINE
  5
154
100
AcDbEntity
  8
0
 62
7
100
AcDbSpline
 70
8
 71
3
 72
8
 73
4
 74
0
 40
0
 40
0
 40
0
 40
0
 40
1
 40
1
 40
1
 40
1
 10
4.659554
 20
6.041942
 30
0.0
 10
4.659502
 20
6.024093
 30
0.0
 10
4.643367
 20
6.009489
 30
0.0
 10
4.623696
 20
6.009489
 30
0.0
  0
SPLINE
  5
155
100
AcDbEntity
  8
0
 62
7
100
AcDbSpline
 70
8
 71
3
 72
8
 73
4
 74
0
 40
0
 40
0
 40
0
 40
0
 40
1
 40
1
 40
1
 40
1
 10
4.623696
 20
6.009489
 30
0.0
 10
4.574289
 20
6.009489
 30
0.0
 10
4.538888
 20
6.059232
 30
0.0
 10
4.517671
 20
6.158471
 30
0.0
  0
SPLINE
  5
156
100
AcDbEntity
  8
0
 62
7
100
AcDbSpline
 70
8
 71
3
 72
8
 73
4
 74
0
 40
0
 40
0
 40
0
 40
0
 40
1
 40
1
 40
1
 40
1
 10
4.517671
 20
6.158471
 30
0.0
 10
4.490830
 20
6.284010
 30
0.0
 10
4.462046
 20
6.281720
 30
0.0
 10
4.425485
 20
6.151138
 30
0.0
  0
SPLINE
  5
157
100
AcDbEntity
  8
0
 62
7
100
AcDbSpline
 70
8
 71
3
 72
8
 73
4
 74
0
 40
0
 40
0
 40
0
 40
0
 40
1
 40
1
 40
1
 40
1
 10
4.425485
 20
6.151138
 30
0.0
 10
4.372745
 20
5.962767
 30
0.0
 10
4.299400
 20
5.965923
 30
0.0
 10
4.247817
 20
6.158783
 30
0.0
  0
SPLINE
  5
158
100
AcDbEntity
  8
0
 62
7
100
AcDbSpline
 70
8
 71
3
 72
8
 73
4
 74
0
 40
0
 40
0
 40
0
 40
0
 40
1
 40
1
 40
1
 40
1
 10
4.247817
 20
6.158783
 30
0.0
 10
4.211827
 20
6.293348
 30
0.0
 10
4.187656
 20
6.281789
 30
0.0
 10
4.139219
 20
6.106845
 30
0.0
  0
SPLINE
  5
159
100
AcDbEntity
  8
0
 62
7
100
AcDbSpline
 70
8
 71
3
 72
8
 73
4
 74
0
 40
0
 40
0
 40
0
 40
0
 40
1
 40
1
 40
1
 40
1
 10
4.139219
 20
6.106845
 30
0.0
 10
4.119380
 20
6.035193
 30
0.0
 10
4.098357
 20
6.009489
 30
0.0
 10
4.059591
 20
6.009489
 30
0.0
  0
SPLINE
  5
15a
100
AcDbEntity
  8
0
 62
7
100
AcDbSpline
 70
8
 71
3
 72
8
 73
4
 74
0
 40
0
 40
0
 40
0
 40
0
 40
1
 40
1
 40
1
 40
1
 10
4.059591
 20
6.009489
 30
0.0
 10
4.017501
 20
6.009489
 30
0.0
 10
4.010157
 20
6.021223
 30
0.0
 10
4.023035
 20
6.067903
 30
0.0
  0
LINE
  5
15b
100
AcDbEntity
  8
0
 62
7
100
AcDbLine
 10
4.023035
 20
6.067903
 30
0.0
 11
4.023035
 21
6.067903
 31
0.0
  0
SPLINE
  5
15c
100
AcDbEntity
  8
0
 62
7
100
AcDbSpline
 70
8
 71
3
 72
8
 73
4
 74
0
 40
0
 40
0
 40
0
 40
0
 40
1
 40
1
 40
1
 40
1
 10
4.844739
 20
6.044158
 30
0.0
 10
4.820450
 20
6.073425
 30
0.0
 10
4.827617
 20
6.119140
 30
0.0
 10
4.878457
 20
6.259203
 30
0.0
  0
SPLINE
  5
15d
100
AcDbEntity
  8
0
 62
7
100
AcDbSpline
 70
8
 71
3
 72
8
 73
4
 74
0
 40
0
 40
0
 40
0
 40
0
 40
1
 40
1
 40
1
 40
1
 10
4.878457
 20
6.259203
 30
0.0
 10
4.913969
 20
6.357036
 30
0.0
 10
4.963234
 20
6.451859
 30
0.0
 10
4.987935
 20
6.469921
 30
0.0
  0
SPLINE
  5
15e
100
AcDbEntity
  8
0
 62
7
100
AcDbSpline
 70
8
 71
3
 72
8
 73
4
 74
0
 40
0
 40
0
 40
0
 40
0
 40
1
 40
1
 40
1
 40
1
 10
4.987935
 20
6.469921
 30
0.0
 10
5.012637
 20
6.487982
 30
0.0
 10
5.088661
 20
6.502761
 30
0.0
 10
5.156878
 20
6.502761
 30
0.0
  0
SPLINE
  5
15f
100
AcDbEntity
  8
0
 62
7
100
AcDbSpline
 70
8
 71
3
 72
8
 73
4
 74
0
 40
0
 40
0
 40
0
 40
0
 40
1
 40
1
 40
1
 40
1
 10
5.156878
 20
6.502761
 30
0.0
 10
5.256462
 20
6.502761
 30
0.0
 10
5.277965
 20
6.495085
 30
0.0
 10
5.265966
 20
6.463818
 30
0.0
  0
SPLINE
  5
160
100
AcDbEntity
  8
0
 62
7
100
AcDbSpline
 70
8
 71
3
 72
8
 73
4
 74
0
 40
0
 40
0
 40
0
 40
0
 40
1
 40
1
 40
1
 40
1
 10
5.265966
 20
6.463818
 30
0.0
 10
5.256833
 20
6.440018
 30
0.0
 10
5.217492
 20
6.424876
 30
0.0
 10
5.164789
 20
6.424876
 30
0.0
  0
SPLINE
  5
161
100
AcDbEntity
  8
0
 62
7
100
AcDbSpline
 70
8
 71
3
 72
8
 73
4
 74
0
 40
0
 40
0
 40
0
 40
0
 40
1
 40
1
 40
1
 40
1
 10
5.164789
 20
6.424876
 30
0.0
 10
5.082659
 20
6.424876
 30
0.0
 10
4.996961
 20
6.370902
 30
0.0
 10
4.996961
 20
6.319175
 30
0.0
  0
SPLINE
  5
162
100
AcDbEntity
  8
0
 62
7
100
AcDbSpline
 70
8
 71
3
 72
8
 73
4
 74
0
 40
0
 40
0
 40
0
 40
0
 40
1
 40
1
 40
1
 40
1
 10
4.996961
 20
6.319175
 30
0.0
 10
4.996961
 20
6.305917
 30
0.0
 10
5.043326
 20
6.295068
 30
0.0
 10
5.099993
 20
6.295068
 30
0.0
  0
SPLINE
  5
163
100
AcDbEntity
  8
0
 62
7
100
AcDbSpline
 70
8
 71
3
 72
8
 73
4
 74
0
 40
0
 40
0
 40
0
 40
0
 40
1
 40
1
 40
1
 40
1
 10
5.099993
 20
6.295068
 30
0.0
 10
5.180911
 20
6.295068
 30
0.0
 10
5.199818
 20
6.286710
 30
0.0
 10
5.188081
 20
6.256125
 30
0.0
  0
SPLINE
  5
164
100
AcDbEntity
  8
0
 62
7
100
AcDbSpline
 70
8
 71
3
 72
8
 73
4
 74
0
 40
0
 40
0
 40
0
 40
0
 40
1
 40
1
 40
1
 40
1
 10
5.188081
 20
6.256125
 30
0.0
 10
5.178371
 20
6.230821
 30
0.0
 10
5.138060
 20
6.217183
 30
0.0
 10
5.072982
 20
6.217183
 30
0.0
  0
SPLINE
  5
165
100
AcDbEntity
  8
0
 62
7
100
AcDbSpline
 70
8
 71
3
 72
8
 73
4
 74
0
 40
0
 40
0
 40
0
 40
0
 40
1
 40
1
 40
1
 40
1
 10
5.072982
 20
6.217183
 30
0.0
 10
5.000442
 20
6.217183
 30
0.0
 10
4.965397
 20
6.203299
 30
0.0
 10
4.945881
 20
6.166835
 30
0.0
  0
SPLINE
  5
166
100
AcDbEntity
  8
0
 62
7
100
AcDbSpline
 70
8
 71
3
 72
8
 73
4
 74
0
 40
0
 40
0
 40
0
 40
0
 40
1
 40
1
 40
1
 40
1
 10
4.945881
 20
6.166835
 30
0.0
 10
4.913379
 20
6.106104
 30
0.0
 10
4.931504
 20
6.093119
 30
0.0
 10
5.043049
 20
6.097225
 30
0.0
  0
SPLINE
  5
167
100
AcDbEntity
  8
0
 62
7
100
AcDbSpline
 70
8
 71
3
 72
8
 73
4
 74
0
 40
0
 40
0
 40
0
 40
0
 40
1
 40
1
 40
1
 40
1
 10
5.043049
 20
6.097225
 30
0.0
 10
5.105641
 20
6.099529
 30
0.0
 10
5.126132
 20
6.090079
 30
0.0
 10
5.120701
 20
6.061413
 30
0.0
  0
SPLINE
  5
168
100
AcDbEntity
  8
0
 62
7
100
AcDbSpline
 70
8
 71
3
 72
8
 73
4
 74
0
 40
0
 40
0
 40
0
 40
0
 40
1
 40
1
 40
1
 40
1
 10
5.120701
 20
6.061413
 30
0.0
 10
5.110424
 20
6.007173
 30
0.0
 10
4.887026
 20
5.993204
 30
0.0
 10
4.844739
 20
6.044158
 30
0.0
  0
LINE
  5
169
100
AcDbEntity
  8
0
 62
7
100
AcDbLine
 10
4.844739
 20
6.044158
 30
0.0
 11
4.844739
 21
6.044158
 31
0.0
  0
SPLINE
  5
16a
100
AcDbEntity
  8
0
 62
7
100
AcDbSpline
 70
8
 71
3
 72
8
 73
4
 74
0
 40
0
 40
0
 40
0
 40
0
 40
1
 40
1
 40
1
 40
1
 10
5.282716
 20
6.041940
 30
0.0
 10
5.282820
 20
6.059788
 30
0.0
 10
5.316223
 20
6.167854
 30
0.0
 10
5.356960
 20
6.282085
 30
0.0
  0
LINE
  5
16b
100
AcDbEntity
  8
0
 62
7
100
AcDbLine
 10
5.356960
 20
6.282085
 30
0.0
 11
5.431026
 21
6.489779
 31
0.0
  0
LINE
  5
16c
100
AcDbEntity
  8
0
 62
7
100
AcDbLine
 10
5.431026
 20
6.489779
 30
0.0
 11
5.538756
 21
6.504538
 31
0.0
  0
SPLINE
  5
16d
100
AcDbEntity
  8
0
 62
7
100
AcDbSpline
 70
8
 71
3
 72
8
 73
4
 74
0
 40
0
 40
0
 40
0
 40
0
 40
1
 40
1
 40
1
 40
1
 10
5.538756
 20
6.504538
 30
0.0
 10
5.718926
 20
6.529220
 30
0.0
 10
5.785286
 20
6.394861
 30
0.0
 10
5.659800
 20
6.259459
 30
0.0
  0
SPLINE
  5
16e
100
AcDbEntity
  8
0
 62
7
100
AcDbSpline
 70
8
 71
3
 72
8
 73
4
 74
0
 40
0
 40
0
 40
0
 40
0
 40
1
 40
1
 40
1
 40
1
 10
5.659800
 20
6.259459
 30
0.0
 10
5.606681
 20
6.202143
 30
0.0
 10
5.600016
 20
6.178988
 30
0.0
 10
5.620857
 20
6.124170
 30
0.0
  0
SPLINE
  5
16f
100
AcDbEntity
  8
0
 62
7
100
AcDbSpline
 70
8
 71
3
 72
8
 73
4
 74
0
 40
0
 40
0
 40
0
 40
0
 40
1
 40
1
 40
1
 40
1
 10
5.620857
 20
6.124170
 30
0.0
 10
5.657977
 20
6.026538
 30
0.0
 10
5.652496
 20
6.009489
 30
0.0
 10
5.583988
 20
6.009489
 30
0.0
  0
SPLINE
  5
170
100
AcDbEntity
  8
0
 62
7
100
AcDbSpline
 70
8
 71
3
 72
8
 73
4
 74
0
 40
0
 40
0
 40
0
 40
0
 40
1
 40
1
 40
1
 40
1
 10
5.583988
 20
6.009489
 30
0.0
 10
5.533669
 20
6.009489
 30
0.0
 10
5.518758
 20
6.026624
 30
0.0
 10
5.504927
 20
6.100355
 30
0.0
  0
SPLINE
  5
171
100
AcDbEntity
  8
0
 62
7
100
AcDbSpline
 70
8
 71
3
 72
8
 73
4
 74
0
 40
0
 40
0
 40
0
 40
0
 40
1
 40
1
 40
1
 40
1
 10
5.504927
 20
6.100355
 30
0.0
 10
5.495550
 20
6.150331
 30
0.0
 10
5.476883
 20
6.191221
 30
0.0
 10
5.463443
 20
6.191221
 30
0.0
  0
SPLINE
  5
172
100
AcDbEntity
  8
0
 62
7
100
AcDbSpline
 70
8
 71
3
 72
8
 73
4
 74
0
 40
0
 40
0
 40
0
 40
0
 40
1
 40
1
 40
1
 40
1
 10
5.463443
 20
6.191221
 30
0.0
 10
5.450002
 20
6.191221
 30
0.0
 10
5.421921
 20
6.150331
 30
0.0
 10
5.401040
 20
6.100355
 30
0.0
  0
SPLINE
  5
173
100
AcDbEntity
  8
0
 62
7
100
AcDbSpline
 70
8
 71
3
 72
8
 73
4
 74
0
 40
0
 40
0
 40
0
 40
0
 40
1
 40
1
 40
1
 40
1
 10
5.401040
 20
6.100355
 30
0.0
 10
5.364913
 20
6.013892
 30
0.0
 10
5.282342
 20
5.973128
 30
0.0
 10
5.282716
 20
6.041941
 30
0.0
  0
LINE
  5
174
100
AcDbEntity
  8
0
 62
7
100
AcDbLine
 10
5.282716
 20
6.041941
 30
0.0
 11
5.282716
 21
6.041940
 31
0.0
  0
SPLINE
  5
175
100
AcDbEntity
  8
0
 62
7
100
AcDbSpline
 70
8
 71
3
 72
8
 73
4
 74
0
 40
0
 40
0
 40
0
 40
0
 40
1
 40
1
 40
1
 40
1
 10
5.607060
 20
6.359972
 30
0.0
 10
5.607060
 20
6.437289
 30
0.0
 10
5.505716
 20
6.429565
 30
0.0
 10
5.494645
 20
6.351404
 30
0.0
  0
SPLINE
  5
176
100
AcDbEntity
  8
0
 62
7
100
AcDbSpline
 70
8
 71
3
 72
8
 73
4
 74
0
 40
0
 40
0
 40
0
 40
0
 40
1
 40
1
 40
1
 40
1
 10
5.494645
 20
6.351404
 30
0.0
 10
5.487515
 20
6.301069
 30
0.0
 10
5.496233
 20
6.292351
 30
0.0
 10
5.546569
 20
6.299480
 30
0.0
  0
SPLINE
  5
177
100
AcDbEntity
  8
0
 62
7
100
AcDbSpline
 70
8
 71
3
 72
8
 73
4
 74
0
 40
0
 40
0
 40
0
 40
0
 40
1
 40
1
 40
1
 40
1
 10
5.546569
 20
6.299480
 30
0.0
 10
5.586896
 20
6.305192
 30
0.0
 10
5.607060
 20
6.325357
 30
0.0
 10
5.607060
 20
6.359972
 30
0.0
  0
LINE
  5
178
100
AcDbEntity
  8
0
 62
7
100
AcDbLine
 10
5.607060
 20
6.359972
 30
0.0
 11
5.607060
 21
6.359972
 31
0.0
  0
ENDSEC
  0
SECTION
  2
OBJECTS
  0
DICTIONARY
  5
C
330
0
100
AcDbDictionary
  3
ACAD_GROUP
350
D
  3
ACAD_MLINESTYLE
350
17
  0
DICTIONARY
  5
D
330
C
100
AcDbDictionary
  0
DICTIONARY
  5
1A
330
C
100
AcDbDictionary
  0
DICTIONARY
  5
17
330
C
100
AcDbDictionary
  3
STANDARD
350
18
  0
DICTIONARY
  5
19
330
C
100
AcDbDictionary
  0
ENDSEC
  0
EOF
